<svg xmlns="http://www.w3.org/2000/svg" width="600" height="360" viewBox="0 0 600 360">
  <defs>
    <linearGradient id="bg" x1="0%" y1="0%" x2="100%" y2="100%">
      <stop offset="0%" style="stop-color:#0d0d0d"/>
      <stop offset="100%" style="stop-color:#1a1008"/>
    </linearGradient>
    <linearGradient id="gold" x1="0%" y1="0%" x2="100%" y2="0%">
      <stop offset="0%" style="stop-color:#c9a84c"/>
      <stop offset="100%" style="stop-color:#e8c96a"/>
    </linearGradient>
  </defs>

  <rect width="600" height="360" fill="url(#bg)"/>
  <pattern id="grid" width="40" height="40" patternUnits="userSpaceOnUse">
    <path d="M 40 0 L 0 0 0 40" fill="none" stroke="#ffffff05" stroke-width="0.5"/>
  </pattern>
  <rect width="600" height="360" fill="url(#grid)"/>
  <rect x="0" y="0" width="600" height="3" fill="url(#gold)"/>

  <!-- Browser chrome -->
  <rect x="40" y="50" width="520" height="260" rx="10" fill="#0a0a08" stroke="#2a2015" stroke-width="1"/>
  <rect x="40" y="50" width="520" height="36" rx="10" fill="#151208"/>
  <rect x="40" y="72" width="520" height="14" fill="#151208"/>
  <circle cx="62" cy="68" r="5" fill="#ff5f57"/>
  <circle cx="79" cy="68" r="5" fill="#ffbd2e"/>
  <circle cx="96" cy="68" r="5" fill="#28c840"/>
  <rect x="115" y="59" width="330" height="18" rx="9" fill="#1e1a0a" stroke="#2a2010" stroke-width="1"/>
  <text x="280" y="72" text-anchor="middle" font-family="monospace" font-size="10" fill="#554">intelligent. — Finatwork</text>

  <!-- Sidebar -->
  <rect x="40" y="86" width="110" height="224" fill="#0f0e08"/>
  <text x="95" y="112" text-anchor="middle" font-family="serif" font-size="14" fill="#c9a84c" font-style="italic">intelligent.</text>
  <rect x="50" y="125" width="90" height="24" rx="4" fill="#c9a84c" fill-opacity="0.2"/>
  <text x="95" y="141" text-anchor="middle" font-family="sans-serif" font-size="10" fill="#c9a84c">Dashboard</text>
  <text x="95" y="168" text-anchor="middle" font-family="sans-serif" font-size="10" fill="#554">Mutual Funds</text>
  <text x="95" y="192" text-anchor="middle" font-family="sans-serif" font-size="10" fill="#554">Tax Optimizer</text>
  <text x="95" y="216" text-anchor="middle" font-family="sans-serif" font-size="10" fill="#554">Insurance</text>
  <text x="95" y="240" text-anchor="middle" font-family="sans-serif" font-size="10" fill="#554">Estate Plan</text>
  <text x="95" y="264" text-anchor="middle" font-family="sans-serif" font-size="10" fill="#554">Health Score</text>

  <!-- Main content -->
  <!-- Portfolio value -->
  <rect x="160" y="95" width="200" height="70" rx="6" fill="#151208" stroke="#2a2010" stroke-width="1"/>
  <text x="180" y="118" font-family="sans-serif" font-size="10" fill="#888">Portfolio Value</text>
  <text x="180" y="143" font-family="monospace" font-size="20" fill="#c9a84c" font-weight="bold">₹14,82,350</text>
  <text x="180" y="158" font-family="sans-serif" font-size="9" fill="#4ade80">▲ 12.4% this year</text>

  <!-- Fund allocation pie (simplified) -->
  <rect x="370" y="95" width="175" height="70" rx="6" fill="#151208" stroke="#2a2010" stroke-width="1"/>
  <text x="390" y="118" font-family="sans-serif" font-size="10" fill="#888">Fund Allocation</text>
  <circle cx="410" cy="145" r="20" fill="none" stroke="#4a9eff" stroke-width="6" stroke-dasharray="50 125"/>
  <circle cx="410" cy="145" r="20" fill="none" stroke="#c9a84c" stroke-width="6" stroke-dasharray="38 125" stroke-dashoffset="-50"/>
  <circle cx="410" cy="145" r="20" fill="none" stroke="#4ade80" stroke-width="6" stroke-dasharray="37 125" stroke-dashoffset="-88"/>
  <text x="445" y="135" font-family="sans-serif" font-size="9" fill="#4a9eff">● Equity 40%</text>
  <text x="445" y="150" font-family="sans-serif" font-size="9" fill="#c9a84c">● Debt 30%</text>
  <text x="445" y="165" font-family="sans-serif" font-size="9" fill="#4ade80">● ELSS 30%</text>

  <!-- Tax savings -->
  <rect x="160" y="178" width="385" height="50" rx="6" fill="#151208" stroke="#2a2010" stroke-width="1"/>
  <text x="180" y="200" font-family="sans-serif" font-size="10" fill="#888">Tax Saved (80C)</text>
  <rect x="180" y="210" width="260" height="8" rx="4" fill="#1e1a0a"/>
  <rect x="180" y="210" width="195" height="8" rx="4" fill="#c9a84c"/>
  <text x="450" y="218" font-family="monospace" font-size="10" fill="#c9a84c">₹1,46,250 / ₹1,50,000</text>

  <!-- Recommendations -->
  <rect x="160" y="240" width="385" height="55" rx="6" fill="#151208" stroke="#2a2010" stroke-width="1"/>
  <text x="180" y="260" font-family="sans-serif" font-size="10" fill="#888">Recommended Funds</text>
  <text x="180" y="278" font-family="monospace" font-size="10" fill="#fff">Axis Bluechip</text>
  <text x="310" y="278" font-family="monospace" font-size="10" fill="#4ade80">+18.2% 3Y</text>
  <text x="180" y="290" font-family="monospace" font-size="10" fill="#fff">Mirae Asset Large</text>
  <text x="310" y="290" font-family="monospace" font-size="10" fill="#4ade80">+16.8% 3Y</text>

  <!-- Tech pills -->
  <rect x="40" y="325" width="72" height="22" rx="11" fill="#dd1b16" fill-opacity="0.15" stroke="#dd1b16" stroke-width="1"/>
  <text x="76" y="340" text-anchor="middle" font-family="monospace" font-size="10" fill="#f87171">AngularJS</text>

  <rect x="122" y="325" width="72" height="22" rx="11" fill="#f7df1e" fill-opacity="0.15" stroke="#f7df1e" stroke-width="1"/>
  <text x="158" y="340" text-anchor="middle" font-family="monospace" font-size="10" fill="#fde68a">JavaScript</text>

  <rect x="204" y="325" width="64" height="22" rx="11" fill="#0d9488" fill-opacity="0.15" stroke="#0d9488" stroke-width="1"/>
  <text x="236" y="340" text-anchor="middle" font-family="monospace" font-size="10" fill="#5eead4">REST API</text>
</svg>
